<?xml version="1.0" encoding="utf-8"?>
<!-- Generator: Adobe Illustrator 24.1.1, SVG Export Plug-In . SVG Version: 6.00 Build 0)  -->
<svg version="1.1" id="Layer_1" xmlns="http://www.w3.org/2000/svg" xmlns:xlink="http://www.w3.org/1999/xlink" x="0px" y="0px"
	 viewBox="0 0 1549.55 1546.91" style="enable-background:new 0 0 1549.55 1546.91;" xml:space="preserve">
<g>
	<path d="M278.16,354.65c8.63-9.98,14.23-20.49,16.79-31.53c2.56-11.03,2-21.75-1.69-32.16c-3.69-10.41-10.21-19.66-19.56-27.74
		c-9.44-8.16-19.55-13.3-30.34-15.41c-10.79-2.11-21.43-1.12-31.94,2.95c-10.51,4.08-20.12,11.16-28.83,21.23l-30.97,35.81
		l95.58,82.65L278.16,354.65z M191.63,301.71l9.54-11.03c7.61-8.8,15.99-13.54,25.13-14.2c9.14-0.66,18.11,2.81,26.92,10.43
		c8.81,7.61,13.49,15.95,14.06,25.01c0.57,9.06-2.95,18-10.56,26.8l-9.54,11.03L191.63,301.71z"/>
	<path d="M282.62,253.48c7.64,9.72,16.8,16.67,27.49,20.86c10.69,4.19,21.64,5.4,32.83,3.62c11.2-1.78,21.46-6.33,30.8-13.67
		c9.34-7.34,16.17-16.22,20.5-26.64c4.33-10.42,5.7-21.3,4.11-32.65c-1.59-11.34-6.2-21.87-13.84-31.59
		c-7.64-9.72-16.74-16.68-27.3-20.9c-10.56-4.21-21.44-5.43-32.63-3.66c-11.19,1.78-21.46,6.33-30.8,13.67
		c-9.34,7.34-16.2,16.24-20.57,26.7c-4.37,10.46-5.81,21.35-4.31,32.69C270.42,233.24,274.99,243.76,282.62,253.48z M297.97,207.31
		c0.69-8.93,5.04-16.55,13.06-22.85c7.93-6.23,16.33-8.6,25.21-7.1c8.88,1.49,16.77,6.63,23.66,15.4
		c6.82,8.68,9.92,17.54,9.31,26.56c-0.61,9.03-4.88,16.66-12.81,22.88c-8.02,6.3-16.47,8.71-25.35,7.21
		c-8.88-1.49-16.77-6.63-23.66-15.4C300.42,225.15,297.28,216.25,297.97,207.31z"/>
	<polygon points="482.66,193.33 466.81,109.07 519.93,176.15 553.77,160.55 530.79,32.01 500.71,45.87 522.54,137.09 464.42,62.6 
		433.68,76.77 451.76,169.72 396.74,93.79 366.83,107.58 448.82,208.93 	"/>
	<polygon points="601.64,67.27 667.62,133.4 697.78,127.27 672.61,3.44 642.45,9.57 658.04,86.3 592,19.83 561.83,25.96 587,149.78 
		617.17,143.65 	"/>
	<polygon points="782.29,124.47 781.24,100.73 740.96,102.5 736.46,0 705.71,1.35 711.26,127.59 	"/>
	<path d="M815.68,119.18c9.2,6.62,19.7,10.62,31.5,11.98c11.8,1.37,22.91-0.13,33.32-4.48c10.41-4.35,19.04-11.11,25.9-20.29
		s11-19.9,12.42-32.18c1.42-12.28-0.14-23.63-4.66-34.06c-4.53-10.43-11.4-18.96-20.59-25.58c-9.2-6.62-19.7-10.62-31.5-11.98
		c-11.8-1.37-22.94,0.13-33.41,4.47c-10.47,4.35-19.16,11.07-26.07,20.18c-6.92,9.11-11.08,19.8-12.5,32.07
		c-1.42,12.28,0.19,23.67,4.83,34.17C799.56,103.99,806.49,112.56,815.68,119.18z M821.38,62.94c1.3-11.2,5.33-19.74,12.11-25.6
		c6.78-5.86,15.23-8.2,25.37-7.03c10.01,1.16,17.65,5.4,22.9,12.71c5.25,7.31,7.24,16.51,5.96,27.6
		c-1.27,10.97-5.3,19.44-12.09,25.42c-6.79,5.98-15.2,8.39-25.21,7.23c-10.13-1.17-17.83-5.42-23.08-12.73
		C822.08,83.22,820.1,74.02,821.38,62.94z"/>
	<path d="M939.83,146.78l14.02-18.94l44.91,14.4l0.38,23.56l31.02,9.95l-4.95-134.29l-33.94-10.88l-82.13,106.36L939.83,146.78z
		 M997.69,68.36l0.78,48.83l-29.65-9.51L997.69,68.36z"/>
	<path d="M1139.66,201.56c9.38-5.82,17.03-14.17,22.93-25.02c5.96-10.96,8.82-21.94,8.59-32.93c-0.24-10.99-3.47-21.18-9.7-30.58
		c-6.23-9.4-15.19-17.28-26.89-23.64L1093,66.76l-60.37,111.01l41.59,22.62c11.6,6.31,23.05,9.54,34.38,9.68
		C1119.92,210.22,1130.27,207.38,1139.66,201.56z M1085.2,176.04l-12.81-6.97l35.09-64.52l12.81,6.97
		c10.22,5.56,16.64,12.74,19.23,21.52s1.11,18.3-4.45,28.52c-5.56,10.23-12.71,16.58-21.44,19.08
		C1104.91,183.14,1095.43,181.6,1085.2,176.04z"/>
	<path d="M1208.75,296.69c11.06,10.14,23.17,15.92,36.36,17.34c13.18,1.43,25.72-1.69,37.62-9.34l-24.94-22.87
		c-5.43,2.19-10.78,2.74-16.04,1.65c-5.27-1.09-10.07-3.62-14.41-7.59c-6.99-6.41-10.42-14.03-10.29-22.87
		c0.13-8.84,3.92-17.32,11.38-25.46c7.46-8.14,15.59-12.65,24.38-13.54c8.79-0.89,16.68,1.87,23.67,8.27
		c4.33,3.97,7.27,8.54,8.81,13.7c1.54,5.16,1.45,10.53-0.26,16.13l24.94,22.87c6.59-12.52,8.63-25.3,6.11-38.36
		c-2.52-13.06-9.31-24.65-20.36-34.79c-9.02-8.27-18.94-13.66-29.75-16.16c-10.81-2.5-21.51-1.98-32.1,1.58
		c-10.59,3.56-20.1,9.94-28.54,19.14c-8.44,9.2-13.95,19.2-16.53,30.02c-2.59,10.81-2.17,21.5,1.26,32.05
		C1193.5,279,1199.73,288.42,1208.75,296.69z"/>
	<polygon points="1302.52,402.1 1430.66,362.65 1411.22,336.51 1315.87,368.17 1373.73,286.11 1354.18,259.82 1279.53,371.19 	"/>
	<path d="M1378.51,547.78c4.45,12.43,10.84,22.47,19.19,30.13c8.34,7.66,17.96,12.44,28.84,14.35c10.88,1.91,22.14,0.78,33.77-3.38
		c11.75-4.2,21.2-10.48,28.34-18.83c7.14-8.36,11.52-18.11,13.14-29.27c1.62-11.16,0.18-23.01-4.3-35.55l-15.94-44.58l-118.98,42.55
		L1378.51,547.78z M1467.17,498.48l4.91,13.73c3.92,10.96,3.92,20.58,0,28.87c-3.92,8.28-11.36,14.39-22.32,18.31
		c-10.96,3.92-20.53,3.9-28.7-0.06c-8.17-3.96-14.22-11.42-18.14-22.38l-4.91-13.73L1467.17,498.48z"/>
	<path d="M1464.37,601.43c-12.22,1.84-22.8,6.37-31.72,13.6c-8.92,7.23-15.38,16.15-19.36,26.76c-3.99,10.61-5.09,21.79-3.33,33.54
		s6.11,22.08,13.04,30.99c6.92,8.91,15.71,15.47,26.35,19.7c10.65,4.22,22.08,5.41,34.3,3.58c12.22-1.84,22.77-6.31,31.66-13.41
		c8.88-7.1,15.32-15.96,19.3-26.57c3.98-10.61,5.09-21.79,3.33-33.54c-1.77-11.75-6.12-22.11-13.05-31.07
		c-6.93-8.97-15.7-15.6-26.29-19.89C1488,600.82,1476.59,599.59,1464.37,601.43z M1510.35,660.23c1.5,9.97-0.59,18.44-6.28,25.43
		c-5.68,6.98-14.04,11.31-25.08,12.97c-10.92,1.64-20.15-0.03-27.7-5.02c-7.55-4.99-12.07-12.47-13.57-22.44
		c-1.52-10.09,0.56-18.62,6.25-25.6c5.68-6.98,14.04-11.31,25.08-12.97c11.15-1.68,20.44-0.01,27.87,5
		C1504.36,642.59,1508.83,650.14,1510.35,660.23z"/>
	<polygon points="1549.55,746.6 1420.98,768.13 1417.91,805.26 1499.07,832.91 1414.54,846.16 1411.47,883.29 1534.69,926.52 
		1537.41,893.52 1447.26,867.65 1540.7,853.69 1543.49,819.97 1453.67,789.97 1546.84,779.43 	"/>
	<polygon points="1395.06,946.88 1469.21,970.88 1379.2,995.85 1369.72,1025.14 1489.94,1064.05 1499.42,1034.77 1424.92,1010.66 
		1515.27,985.79 1524.75,956.51 1404.53,917.59 	"/>
	<polygon points="1330.6,1099.97 1351.78,1110.75 1370.07,1074.82 1461.5,1121.37 1475.47,1093.94 1362.86,1036.61 	"/>
	<path d="M1383.44,1138.84c-9.97-7.3-20.67-11.53-32.1-12.68c-11.43-1.15-22.29,0.63-32.59,5.36c-10.3,4.73-18.96,11.88-25.98,21.47
		s-11.21,19.98-12.57,31.18c-1.36,11.2,0.25,22.05,4.84,32.54c4.58,10.5,11.86,19.39,21.83,26.7c9.97,7.3,20.61,11.56,31.92,12.78
		c11.31,1.21,22.11-0.54,32.41-5.27c10.3-4.73,18.96-11.88,25.98-21.47s11.22-20,12.62-31.25c1.4-11.25-0.16-22.13-4.66-32.64
		C1400.65,1155.05,1393.42,1146.14,1383.44,1138.84z M1374.68,1212.96c-5.96,8.13-13.41,12.67-22.36,13.63
		c-8.95,0.95-17.93-1.86-26.94-8.46c-8.91-6.52-14.28-14.22-16.12-23.07c-1.84-8.86,0.21-17.36,6.17-25.49
		c6.03-8.23,13.52-12.82,22.47-13.78c8.95-0.96,17.93,1.86,26.94,8.46c9.1,6.66,14.52,14.39,16.27,23.18
		C1382.85,1196.22,1380.71,1204.73,1374.68,1212.96z"/>
	<path d="M1233.34,1225.95l9.59,21.53l-34.65,31.99l-20.7-11.27l-23.93,22.1l119.31,61.81l26.18-24.18l-52.14-123.85
		L1233.34,1225.95z M1230.22,1291.56l22.88-21.13l20.01,44.49L1230.22,1291.56z"/>
	<path d="M1120.51,1316.67c-11.19,7.01-19.62,15.41-25.31,25.2c-5.69,9.79-8.3,20.21-7.83,31.24c0.47,11.03,3.99,21.79,10.55,32.26
		c6.63,10.58,14.79,18.46,24.48,23.64c9.69,5.18,20.16,7.37,31.4,6.56c11.25-0.82,22.51-4.76,33.8-11.83l40.12-25.13l-67.09-107.08
		L1120.51,1316.67z M1175.32,1400.43c-9.86,6.18-19.26,8.24-28.19,6.19s-16.49-8.01-22.67-17.87c-6.18-9.87-8.21-19.21-6.1-28.04
		c2.11-8.83,8.11-16.34,17.97-22.51l12.36-7.74l38.99,62.24L1175.32,1400.43z"/>
	<path d="M1032.93,1398.84c-8.14-7.58-17.64-12.47-28.52-14.68c-10.87-2.21-22.13-1.42-33.77,2.36c-14.27,4.63-25.26,12.33-33,23.11
		c-7.73,10.77-11.2,23.22-10.39,37.35l32.19-10.45c0.77-5.8,2.92-10.73,6.46-14.78c3.54-4.05,8.11-6.99,13.7-8.8
		c9.02-2.93,17.34-2.16,24.97,2.3c7.63,4.46,13.15,11.94,16.56,22.44c3.41,10.5,3.34,19.8-0.22,27.89
		c-3.55,8.09-9.84,13.6-18.86,16.53c-5.59,1.82-11.01,2.12-16.26,0.93c-5.25-1.2-9.88-3.92-13.91-8.16l-32.19,10.45
		c7.65,11.9,17.78,19.97,30.38,24.2c12.61,4.23,26.04,4.04,40.31-0.6c11.64-3.78,21.21-9.76,28.71-17.93
		c7.5-8.18,12.31-17.75,14.43-28.72c2.12-10.97,1.25-22.39-2.61-34.26C1047.06,1416.14,1041.06,1406.42,1032.93,1398.84z"/>
	<polygon points="832.82,1416.02 803.8,1546.91 836.14,1542.92 855.72,1444.39 898.48,1535.24 931,1531.23 871.05,1411.3 	"/>
	<path d="M632.73,1412.27c-10.77,3.51-19.66,9.53-26.66,18.06c-7.01,8.54-11.56,18.89-13.65,31.08c-2.11,12.3-1.29,23.61,2.48,33.94
		c3.77,10.33,10.11,18.93,19.03,25.83c8.92,6.89,19.95,11.46,33.07,13.72l46.66,8.02l21.4-124.53l-46.66-8.02
		C655.39,1408.12,643.5,1408.76,632.73,1412.27z M667.77,1511.8l-14.37-2.47c-11.47-1.97-19.85-6.7-25.14-14.18
		c-5.29-7.48-6.95-16.96-4.98-28.43c1.97-11.47,6.69-19.79,14.15-24.96c7.46-5.17,16.93-6.77,28.4-4.8l14.37,2.47L667.77,1511.8z"/>
	<path d="M569.42,1394.47c-7.28-8.69-16.47-15.15-27.57-19.38c-11.1-4.23-22.23-5.53-33.39-3.88c-11.16,1.65-21.2,6.07-30.11,13.27
		s-15.57,16.57-19.97,28.12c-4.4,11.55-5.7,22.93-3.88,34.16c1.82,11.22,6.37,21.18,13.65,29.87c7.28,8.68,16.47,15.15,27.57,19.38
		c11.1,4.23,22.26,5.53,33.48,3.91c11.22-1.63,21.3-6,30.24-13.12c8.95-7.12,15.62-16.46,20.02-28c4.41-11.55,5.65-22.98,3.74-34.31
		C581.3,1413.16,576.7,1403.15,569.42,1394.47z M550.03,1447.57c-4.02,10.54-10.04,17.81-18.05,21.82c-8.01,4-16.79,4.19-26.32,0.56
		c-9.42-3.59-15.77-9.58-19.06-17.96c-3.29-8.38-2.94-17.79,1.03-28.21c3.94-10.32,9.93-17.53,17.99-21.65
		c8.06-4.12,16.79-4.38,26.21-0.79c9.53,3.64,15.94,9.64,19.23,18.03C554.36,1427.73,554.01,1437.14,550.03,1447.57z"/>
	<polygon points="425.05,1318.13 360.91,1375.03 391.16,1294.98 360.39,1273.97 261.93,1359.74 289.28,1378.42 356.31,1312.82 
		322.27,1400.96 350.22,1420.04 420.67,1356.77 383.81,1442.98 411.02,1461.56 455.82,1339.14 	"/>
	<polygon points="313.1,1228.24 255.7,1280.97 278.27,1190.33 257.45,1167.66 164.39,1253.15 185.22,1275.81 242.88,1222.84 
		220.04,1313.73 240.87,1336.39 333.92,1250.91 	"/>
	<polygon points="211.36,1096.76 191.57,1109.92 213.9,1143.49 128.46,1200.3 145.5,1225.93 250.73,1155.97 	"/>
	<path d="M178.36,1102.02c6.62-9.39,10.4-19.73,11.34-31.02c0.94-11.3-1.04-22.35-5.94-33.18s-11.9-19.57-20.99-26.26
		c-9.09-6.68-19.33-10.61-30.72-11.77c-11.39-1.16-22.72,0.81-33.98,5.91c-11.26,5.1-20.19,12.28-26.81,21.53
		c-6.61,9.25-10.39,19.53-11.33,30.82c-0.94,11.29,1.04,22.35,5.94,33.18c4.9,10.82,11.91,19.6,21.02,26.34
		c9.11,6.74,19.35,10.73,30.72,11.97c11.37,1.24,22.68-0.69,33.94-5.79C162.81,1118.65,171.75,1111.41,178.36,1102.02z
		 M110.37,1097.84c-8.51-2.8-14.87-8.84-19.08-18.13c-4.16-9.18-4.46-17.91-0.89-26.17c3.57-8.27,10.43-14.71,20.6-19.31
		c10.06-4.56,19.4-5.46,28.02-2.71c8.62,2.75,15.01,8.71,19.17,17.89c4.21,9.29,4.53,18.07,0.96,26.34
		c-3.57,8.27-10.43,14.7-20.6,19.31C128.28,1099.71,118.88,1100.64,110.37,1097.84z"/>
	<path d="M149.5,950.33l-23.46-2.28l-10.74-45.92l20.01-12.44l-7.42-31.72L15.27,931.25l8.12,34.7l133.45,15.74L149.5,950.33z
		 M52.5,941.04l41.48-25.78l7.09,30.32L52.5,941.04z"/>
	<path d="M126.33,807.45c-0.57-13.19-3.71-24.67-9.42-34.46c-5.71-9.78-13.47-17.19-23.3-22.23c-9.83-5.04-20.91-7.29-33.26-6.76
		c-12.47,0.54-23.35,3.74-32.65,9.61c-9.29,5.87-16.36,13.89-21.21,24.07c-4.84,10.18-6.98,21.92-6.4,35.23l2.05,47.3l126.24-5.46
		L126.33,807.45z M27.06,828.32l-0.63-14.57c-0.5-11.63,2.34-20.82,8.54-27.58s15.11-10.38,26.73-10.89
		c11.63-0.5,20.76,2.34,27.39,8.54c6.64,6.2,10.2,15.11,10.71,26.74l0.63,14.57L27.06,828.32z"/>
	<path d="M30.89,676.16c8.91,7.64,19.77,12.79,32.6,15.45c12.83,2.66,24.82,2.25,35.96-1.23c11.15-3.48,20.55-9.6,28.23-18.37
		c7.67-8.77,12.81-19.44,15.42-32.03c3.2-15.42,1.89-29.46-3.91-42.12c-5.8-12.65-15.36-22.29-28.65-28.91l-7.21,34.79
		c4.89,3.72,8.26,8.25,10.12,13.58c1.85,5.34,2.15,11.03,0.9,17.08c-2.02,9.75-7.05,16.94-15.09,21.58
		c-8.04,4.64-17.73,5.78-29.08,3.43c-11.35-2.35-19.79-7.25-25.32-14.71c-5.53-7.45-7.29-16.05-5.27-25.8
		c1.25-6.04,3.79-11.15,7.61-15.31c3.82-4.16,8.72-6.97,14.68-8.44l7.21-34.79c-14.83,0.79-27.46,5.82-37.88,15.12
		c-10.42,9.29-17.23,21.65-20.43,37.07c-2.61,12.58-2.14,24.43,1.42,35.52C15.75,659.16,21.98,668.52,30.89,676.16z"/>
	<polygon points="188.47,499.84 85.13,404.25 71.63,435.68 150.62,505.6 45.6,496.29 32.03,527.89 172.51,537.01 	"/>
	<circle cx="1410.63" cy="436.57" r="22.58"/>
	<circle cx="771.92" cy="1481.74" r="22.58"/>
	<circle cx="171.92" cy="413.99" r="22.58"/>
</g>
<g>
</g>
<g>
</g>
<g>
</g>
<g>
</g>
<g>
</g>
<g>
</g>
</svg>
