<?xml version="1.0" encoding="utf-8"?>
<!-- Generator: Adobe Illustrator 24.1.1, SVG Export Plug-In . SVG Version: 6.00 Build 0)  -->
<svg version="1.1" id="Layer_1" xmlns="http://www.w3.org/2000/svg" xmlns:xlink="http://www.w3.org/1999/xlink" x="0px" y="0px"
	 viewBox="0 0 1549.6 1546.9" style="enable-background:new 0 0 1549.6 1546.9;" xml:space="preserve">
<style type="text/css">
	.st0{fill:#5F5F5F;}
</style>
<g>
	<path d="M278.2,354.6c8.6-10,14.2-20.5,16.8-31.5c2.6-11,2-21.8-1.7-32.2s-10.2-19.7-19.6-27.7c-9.4-8.2-19.6-13.3-30.3-15.4
		s-21.4-1.1-31.9,2.9c-10.5,4.1-20.1,11.2-28.8,21.2l-31,35.8l95.6,82.6L278.2,354.6z M191.6,301.7l9.5-11
		c7.6-8.8,16-13.5,25.1-14.2s18.1,2.8,26.9,10.4c8.8,7.6,13.5,16,14.1,25s-3,18-10.6,26.8l-9.5,11L191.6,301.7z"/>
	<path d="M282.6,253.5c7.6,9.7,16.8,16.7,27.5,20.9s21.6,5.4,32.8,3.6c11.2-1.8,21.5-6.3,30.8-13.7c9.3-7.3,16.2-16.2,20.5-26.6
		s5.7-21.3,4.1-32.7c-1.6-11.3-6.2-21.9-13.8-31.6c-7.6-9.7-16.7-16.7-27.3-20.9c-10.6-4.2-21.4-5.4-32.6-3.7
		c-11.2,1.8-21.5,6.3-30.8,13.7s-16.2,16.2-20.6,26.7c-4.4,10.5-5.8,21.4-4.3,32.7C270.4,233.2,275,243.8,282.6,253.5z M298,207.3
		c0.7-8.9,5-16.6,13.1-22.9c7.9-6.2,16.3-8.6,25.2-7.1c8.9,1.5,16.8,6.6,23.7,15.4c6.8,8.7,9.9,17.5,9.3,26.6
		c-0.6,9-4.9,16.7-12.8,22.9c-8,6.3-16.5,8.7-25.4,7.2c-8.9-1.5-16.8-6.6-23.7-15.4C300.4,225.1,297.3,216.3,298,207.3z"/>
	<polygon points="482.7,193.3 466.8,109.1 519.9,176.1 553.8,160.6 530.8,32 500.7,45.9 522.5,137.1 464.4,62.6 433.7,76.8 
		451.8,169.7 396.7,93.8 366.8,107.6 448.8,208.9 	"/>
	<polygon points="601.6,67.3 667.6,133.4 697.8,127.3 672.6,3.4 642.5,9.6 658,86.3 592,19.8 561.8,26 587,149.8 617.2,143.6 	"/>
	<polygon points="782.3,124.5 781.2,100.7 741,102.5 736.5,0 705.7,1.4 711.3,127.6 	"/>
	<path d="M815.7,119.2c9.2,6.6,19.7,10.6,31.5,12c11.8,1.4,22.9-0.1,33.3-4.5c10.4-4.3,19-11.1,25.9-20.3s11-19.9,12.4-32.2
		s-0.1-23.6-4.7-34.1c-4.5-10.4-11.4-19-20.6-25.6c-9.2-6.6-19.7-10.6-31.5-12c-11.8-1.4-22.9,0.1-33.4,4.5
		c-10.5,4.3-19.2,11.1-26.1,20.2c-6.9,9.1-11.1,19.8-12.5,32.1c-1.4,12.3,0.2,23.7,4.8,34.2C799.6,104,806.5,112.6,815.7,119.2z
		 M821.4,62.9c1.3-11.2,5.3-19.7,12.1-25.6c6.8-5.9,15.2-8.2,25.4-7c10,1.2,17.7,5.4,22.9,12.7s7.2,16.5,6,27.6
		c-1.3,11-5.3,19.4-12.1,25.4c-6.8,6-15.2,8.4-25.2,7.2c-10.1-1.2-17.8-5.4-23.1-12.7C822.1,83.2,820.1,74,821.4,62.9z"/>
	<path d="M939.8,146.8l14-18.9l44.9,14.4l0.4,23.6l31,9.9l-4.9-134.3l-33.9-10.9l-82.1,106.4L939.8,146.8z M997.7,68.4l0.8,48.8
		l-29.7-9.5L997.7,68.4z"/>
	<path d="M1139.7,201.6c9.4-5.8,17-14.2,22.9-25c6-11,8.8-21.9,8.6-32.9c-0.2-11-3.5-21.2-9.7-30.6s-15.2-17.3-26.9-23.6L1093,66.8
		l-60.4,111l41.6,22.6c11.6,6.3,23.1,9.5,34.4,9.7C1119.9,210.2,1130.3,207.4,1139.7,201.6z M1085.2,176l-12.8-7l35.1-64.5l12.8,7
		c10.2,5.6,16.6,12.7,19.2,21.5s1.1,18.3-4.4,28.5c-5.6,10.2-12.7,16.6-21.4,19.1C1104.9,183.1,1095.4,181.6,1085.2,176z"/>
	<path d="M1208.8,296.7c11.1,10.1,23.2,15.9,36.4,17.3c13.2,1.4,25.7-1.7,37.6-9.3l-24.9-22.9c-5.4,2.2-10.8,2.7-16,1.6
		c-5.3-1.1-10.1-3.6-14.4-7.6c-7-6.4-10.4-14-10.3-22.9s3.9-17.3,11.4-25.5c7.5-8.1,15.6-12.6,24.4-13.5s16.7,1.9,23.7,8.3
		c4.3,4,7.3,8.5,8.8,13.7s1.4,10.5-0.3,16.1L1310,275c6.6-12.5,8.6-25.3,6.1-38.4s-9.3-24.6-20.4-34.8c-9-8.3-18.9-13.7-29.8-16.2
		s-21.5-2-32.1,1.6s-20.1,9.9-28.5,19.1c-8.4,9.2-13.9,19.2-16.5,30c-2.6,10.8-2.2,21.5,1.3,32.1
		C1193.5,279,1199.7,288.4,1208.8,296.7z"/>
	<polygon points="1302.5,402.1 1430.7,362.6 1411.2,336.5 1315.9,368.2 1373.7,286.1 1354.2,259.8 1279.5,371.2 	"/>
	<path d="M1378.5,547.8c4.4,12.4,10.8,22.5,19.2,30.1c8.3,7.7,18,12.4,28.8,14.3s22.1,0.8,33.8-3.4c11.8-4.2,21.2-10.5,28.3-18.8
		c7.1-8.4,11.5-18.1,13.1-29.3c1.6-11.2,0.2-23-4.3-35.5l-15.9-44.6l-119,42.5L1378.5,547.8z M1467.2,498.5l4.9,13.7
		c3.9,11,3.9,20.6,0,28.9c-3.9,8.3-11.4,14.4-22.3,18.3s-20.5,3.9-28.7-0.1c-8.2-4-14.2-11.4-18.1-22.4l-4.9-13.7L1467.2,498.5z"/>
	<path d="M1464.4,601.4c-12.2,1.8-22.8,6.4-31.7,13.6c-8.9,7.2-15.4,16.2-19.4,26.8c-4,10.6-5.1,21.8-3.3,33.5s6.1,22.1,13,31
		c6.9,8.9,15.7,15.5,26.3,19.7c10.7,4.2,22.1,5.4,34.3,3.6c12.2-1.8,22.8-6.3,31.7-13.4c8.9-7.1,15.3-16,19.3-26.6
		c4-10.6,5.1-21.8,3.3-33.5c-1.8-11.8-6.1-22.1-13.1-31.1c-6.9-9-15.7-15.6-26.3-19.9C1488,600.8,1476.6,599.6,1464.4,601.4z
		 M1510.3,660.2c1.5,10-0.6,18.4-6.3,25.4c-5.7,7-14,11.3-25.1,13c-10.9,1.6-20.2,0-27.7-5c-7.6-5-12.1-12.5-13.6-22.4
		c-1.5-10.1,0.6-18.6,6.3-25.6c5.7-7,14-11.3,25.1-13c11.2-1.7,20.4,0,27.9,5C1504.4,642.6,1508.8,650.1,1510.3,660.2z"/>
	<polygon points="1549.6,746.6 1421,768.1 1417.9,805.3 1499.1,832.9 1414.5,846.2 1411.5,883.3 1534.7,926.5 1537.4,893.5 
		1447.3,867.7 1540.7,853.7 1543.5,820 1453.7,790 1546.8,779.4 	"/>
	<polygon points="1395.1,946.9 1469.2,970.9 1379.2,995.8 1369.7,1025.1 1489.9,1064.1 1499.4,1034.8 1424.9,1010.7 1515.3,985.8 
		1524.8,956.5 1404.5,917.6 	"/>
	<polygon points="1330.6,1100 1351.8,1110.8 1370.1,1074.8 1461.5,1121.4 1475.5,1093.9 1362.9,1036.6 	"/>
	<path d="M1383.4,1138.8c-10-7.3-20.7-11.5-32.1-12.7c-11.4-1.2-22.3,0.6-32.6,5.4c-10.3,4.7-19,11.9-26,21.5s-11.2,20-12.6,31.2
		c-1.4,11.2,0.3,22.1,4.8,32.5c4.6,10.5,11.9,19.4,21.8,26.7c10,7.3,20.6,11.6,31.9,12.8c11.3,1.2,22.1-0.5,32.4-5.3
		s19-11.9,26-21.5s11.2-20,12.6-31.3s-0.2-22.1-4.7-32.6C1400.7,1155.1,1393.4,1146.1,1383.4,1138.8z M1374.7,1213
		c-6,8.1-13.4,12.7-22.4,13.6c-8.9,0.9-17.9-1.9-26.9-8.5c-8.9-6.5-14.3-14.2-16.1-23.1c-1.8-8.9,0.2-17.4,6.2-25.5
		c6-8.2,13.5-12.8,22.5-13.8c8.9-1,17.9,1.9,26.9,8.5c9.1,6.7,14.5,14.4,16.3,23.2C1382.8,1196.2,1380.7,1204.7,1374.7,1213z"/>
	<path d="M1233.3,1225.9l9.6,21.5l-34.7,32l-20.7-11.3l-23.9,22.1l119.3,61.8l26.2-24.2l-52.1-123.8L1233.3,1225.9z M1230.2,1291.6
		l22.9-21.1l20,44.5L1230.2,1291.6z"/>
	<path d="M1120.5,1316.7c-11.2,7-19.6,15.4-25.3,25.2c-5.7,9.8-8.3,20.2-7.8,31.2c0.5,11,4,21.8,10.6,32.3
		c6.6,10.6,14.8,18.5,24.5,23.6s20.2,7.4,31.4,6.6c11.3-0.8,22.5-4.8,33.8-11.8l40.1-25.1l-67.1-107.1L1120.5,1316.7z
		 M1175.3,1400.4c-9.9,6.2-19.3,8.2-28.2,6.2s-16.5-8-22.7-17.9c-6.2-9.9-8.2-19.2-6.1-28c2.1-8.8,8.1-16.3,18-22.5l12.4-7.7
		l39,62.2L1175.3,1400.4z"/>
	<path d="M1032.9,1398.8c-8.1-7.6-17.6-12.5-28.5-14.7c-10.9-2.2-22.1-1.4-33.8,2.4c-14.3,4.6-25.3,12.3-33,23.1
		c-7.7,10.8-11.2,23.2-10.4,37.3l32.2-10.4c0.8-5.8,2.9-10.7,6.5-14.8c3.5-4.1,8.1-7,13.7-8.8c9-2.9,17.3-2.2,25,2.3
		c7.6,4.5,13.2,11.9,16.6,22.4c3.4,10.5,3.3,19.8-0.2,27.9c-3.5,8.1-9.8,13.6-18.9,16.5c-5.6,1.8-11,2.1-16.3,0.9
		c-5.3-1.2-9.9-3.9-13.9-8.2l-32.2,10.4c7.7,11.9,17.8,20,30.4,24.2c12.6,4.2,26,4,40.3-0.6c11.6-3.8,21.2-9.8,28.7-17.9
		c7.5-8.2,12.3-17.8,14.4-28.7s1.3-22.4-2.6-34.3C1047.1,1416.1,1041.1,1406.4,1032.9,1398.8z"/>
	<polygon points="832.8,1416 803.8,1546.9 836.1,1542.9 855.7,1444.4 898.5,1535.2 931,1531.2 871,1411.3 	"/>
	<path d="M632.7,1412.3c-10.8,3.5-19.7,9.5-26.7,18.1c-7,8.5-11.6,18.9-13.7,31.1c-2.1,12.3-1.3,23.6,2.5,33.9
		c3.8,10.3,10.1,18.9,19,25.8c8.9,6.9,20,11.5,33.1,13.7l46.7,8l21.4-124.5l-46.7-8C655.4,1408.1,643.5,1408.8,632.7,1412.3z
		 M667.8,1511.8l-14.4-2.5c-11.5-2-19.8-6.7-25.1-14.2c-5.3-7.5-7-17-5-28.4c2-11.5,6.7-19.8,14.2-25c7.5-5.2,16.9-6.8,28.4-4.8
		l14.4,2.5L667.8,1511.8z"/>
	<path d="M569.4,1394.5c-7.3-8.7-16.5-15.2-27.6-19.4c-11.1-4.2-22.2-5.5-33.4-3.9c-11.2,1.7-21.2,6.1-30.1,13.3s-15.6,16.6-20,28.1
		s-5.7,22.9-3.9,34.2c1.8,11.2,6.4,21.2,13.6,29.9c7.3,8.7,16.5,15.2,27.6,19.4s22.3,5.5,33.5,3.9c11.2-1.6,21.3-6,30.2-13.1
		c9-7.1,15.6-16.5,20-28c4.4-11.6,5.7-23,3.7-34.3C581.3,1413.2,576.7,1403.2,569.4,1394.5z M550,1447.6c-4,10.5-10,17.8-18,21.8
		c-8,4-16.8,4.2-26.3,0.6c-9.4-3.6-15.8-9.6-19.1-18s-2.9-17.8,1-28.2c3.9-10.3,9.9-17.5,18-21.7c8.1-4.1,16.8-4.4,26.2-0.8
		c9.5,3.6,15.9,9.6,19.2,18C554.4,1427.7,554,1437.1,550,1447.6z"/>
	<polygon points="425,1318.1 360.9,1375 391.2,1295 360.4,1274 261.9,1359.7 289.3,1378.4 356.3,1312.8 322.3,1401 350.2,1420 
		420.7,1356.8 383.8,1443 411,1461.6 455.8,1339.1 	"/>
	<polygon points="313.1,1228.2 255.7,1281 278.3,1190.3 257.5,1167.7 164.4,1253.2 185.2,1275.8 242.9,1222.8 220,1313.7 
		240.9,1336.4 333.9,1250.9 	"/>
	<polygon points="211.4,1096.8 191.6,1109.9 213.9,1143.5 128.5,1200.3 145.5,1225.9 250.7,1156 	"/>
	<path d="M178.4,1102c6.6-9.4,10.4-19.7,11.3-31c0.9-11.3-1-22.3-5.9-33.2s-11.9-19.6-21-26.3c-9.1-6.7-19.3-10.6-30.7-11.8
		c-11.4-1.2-22.7,0.8-34,5.9s-20.2,12.3-26.8,21.5c-6.6,9.3-10.4,19.5-11.3,30.8c-0.9,11.3,1,22.3,5.9,33.2
		c4.9,10.8,11.9,19.6,21,26.3s19.3,10.7,30.7,12s22.7-0.7,33.9-5.8C162.8,1118.7,171.8,1111.4,178.4,1102z M110.4,1097.8
		c-8.5-2.8-14.9-8.8-19.1-18.1c-4.2-9.2-4.5-17.9-0.9-26.2c3.6-8.3,10.4-14.7,20.6-19.3c10.1-4.6,19.4-5.5,28-2.7
		c8.6,2.8,15,8.7,19.2,17.9c4.2,9.3,4.5,18.1,1,26.3c-3.6,8.3-10.4,14.7-20.6,19.3C128.3,1099.7,118.9,1100.6,110.4,1097.8z"/>
	<path d="M149.5,950.3L126,948l-10.7-45.9l20-12.4l-7.4-31.7L15.3,931.3l8.1,34.7l133.4,15.7L149.5,950.3z M52.5,941L94,915.3
		l7.1,30.3L52.5,941z"/>
	<path d="M126.3,807.5c-0.6-13.2-3.7-24.7-9.4-34.5c-5.7-9.8-13.5-17.2-23.3-22.2s-20.9-7.3-33.3-6.8c-12.5,0.5-23.4,3.7-32.7,9.6
		c-9.3,5.9-16.4,13.9-21.2,24.1c-4.8,10.2-7,21.9-6.4,35.2l2,47.3l126.2-5.5L126.3,807.5z M27.1,828.3l-0.6-14.6
		c-0.5-11.6,2.3-20.8,8.5-27.6s15.1-10.4,26.7-10.9c11.6-0.5,20.8,2.3,27.4,8.5c6.6,6.2,10.2,15.1,10.7,26.7l0.6,14.6L27.1,828.3z"
		/>
	<path d="M30.9,676.2c8.9,7.6,19.8,12.8,32.6,15.5c12.8,2.7,24.8,2.3,36-1.2c11.2-3.5,20.6-9.6,28.2-18.4c7.7-8.8,12.8-19.4,15.4-32
		c3.2-15.4,1.9-29.5-3.9-42.1c-5.8-12.7-15.4-22.3-28.7-28.9l-7.2,34.8c4.9,3.7,8.3,8.3,10.1,13.6c1.8,5.3,2.2,11,0.9,17.1
		c-2,9.8-7.1,16.9-15.1,21.6s-17.7,5.8-29.1,3.4c-11.3-2.3-19.8-7.3-25.3-14.7c-5.5-7.5-7.3-16-5.3-25.8c1.3-6,3.8-11.2,7.6-15.3
		s8.7-7,14.7-8.4l7.2-34.8c-14.8,0.8-27.5,5.8-37.9,15.1c-10.4,9.3-17.2,21.7-20.4,37.1c-2.6,12.6-2.1,24.4,1.4,35.5
		C15.8,659.2,22,668.5,30.9,676.2z"/>
	<polygon points="188.5,499.8 85.1,404.3 71.6,435.7 150.6,505.6 45.6,496.3 32,527.9 172.5,537 	"/>
	<circle cx="1410.6" cy="436.6" r="22.6"/>
	<circle cx="771.9" cy="1481.7" r="22.6"/>
	<circle cx="171.9" cy="414" r="22.6"/>
</g>
<g>
	<path class="st0" d="M277.2,354.6c8.6-10,14.2-20.5,16.8-31.5c2.6-11,2-21.8-1.7-32.2s-10.2-19.7-19.6-27.7
		c-9.4-8.2-19.6-13.3-30.3-15.4s-21.4-1.1-31.9,2.9c-10.5,4.1-20.1,11.2-28.8,21.2l-31,35.8l95.6,82.6L277.2,354.6z M190.6,301.7
		l9.5-11c7.6-8.8,16-13.5,25.1-14.2s18.1,2.8,26.9,10.4c8.8,7.6,13.5,16,14.1,25s-3,18-10.6,26.8l-9.5,11L190.6,301.7z"/>
	<path class="st0" d="M281.6,253.5c7.6,9.7,16.8,16.7,27.5,20.9s21.6,5.4,32.8,3.6c11.2-1.8,21.5-6.3,30.8-13.7
		c9.3-7.3,16.2-16.2,20.5-26.6s5.7-21.3,4.1-32.7c-1.6-11.3-6.2-21.9-13.8-31.6c-7.6-9.7-16.7-16.7-27.3-20.9
		c-10.6-4.2-21.4-5.4-32.6-3.7c-11.2,1.8-21.5,6.3-30.8,13.7s-16.2,16.2-20.6,26.7c-4.4,10.5-5.8,21.4-4.3,32.7
		C269.4,233.2,274,243.8,281.6,253.5z M297,207.3c0.7-8.9,5-16.6,13.1-22.9c7.9-6.2,16.3-8.6,25.2-7.1c8.9,1.5,16.8,6.6,23.7,15.4
		c6.8,8.7,9.9,17.5,9.3,26.6c-0.6,9-4.9,16.7-12.8,22.9c-8,6.3-16.5,8.7-25.4,7.2c-8.9-1.5-16.8-6.6-23.7-15.4
		C299.4,225.1,296.3,216.3,297,207.3z"/>
	<polygon class="st0" points="481.7,193.3 465.8,109.1 518.9,176.1 552.8,160.6 529.8,32 499.7,45.9 521.5,137.1 463.4,62.6 
		432.7,76.8 450.8,169.7 395.7,93.8 365.8,107.6 447.8,208.9 	"/>
	<polygon class="st0" points="600.6,67.3 666.6,133.4 696.8,127.3 671.6,3.4 641.5,9.6 657,86.3 591,19.8 560.8,26 586,149.8 
		616.2,143.6 	"/>
	<polygon class="st0" points="781.3,124.5 780.2,100.7 740,102.5 735.5,0 704.7,1.4 710.3,127.6 	"/>
	<path class="st0" d="M814.7,119.2c9.2,6.6,19.7,10.6,31.5,12c11.8,1.4,22.9-0.1,33.3-4.5c10.4-4.3,19-11.1,25.9-20.3
		s11-19.9,12.4-32.2s-0.1-23.6-4.7-34.1c-4.5-10.4-11.4-19-20.6-25.6c-9.2-6.6-19.7-10.6-31.5-12c-11.8-1.4-22.9,0.1-33.4,4.5
		c-10.5,4.3-19.2,11.1-26.1,20.2c-6.9,9.1-11.1,19.8-12.5,32.1c-1.4,12.3,0.2,23.7,4.8,34.2C798.6,104,805.5,112.6,814.7,119.2z
		 M820.4,62.9c1.3-11.2,5.3-19.7,12.1-25.6c6.8-5.9,15.2-8.2,25.4-7c10,1.2,17.7,5.4,22.9,12.7s7.2,16.5,6,27.6
		c-1.3,11-5.3,19.4-12.1,25.4c-6.8,6-15.2,8.4-25.2,7.2c-10.1-1.2-17.8-5.4-23.1-12.7C821.1,83.2,819.1,74,820.4,62.9z"/>
	<path class="st0" d="M938.8,146.8l14-18.9l44.9,14.4l0.4,23.6l31,9.9l-4.9-134.3l-33.9-10.9l-82.1,106.4L938.8,146.8z M996.7,68.4
		l0.8,48.8l-29.7-9.5L996.7,68.4z"/>
	<path class="st0" d="M1138.7,201.6c9.4-5.8,17-14.2,22.9-25c6-11,8.8-21.9,8.6-32.9c-0.2-11-3.5-21.2-9.7-30.6
		s-15.2-17.3-26.9-23.6L1092,66.8l-60.4,111l41.6,22.6c11.6,6.3,23.1,9.5,34.4,9.7C1118.9,210.2,1129.3,207.4,1138.7,201.6z
		 M1084.2,176l-12.8-7l35.1-64.5l12.8,7c10.2,5.6,16.6,12.7,19.2,21.5s1.1,18.3-4.4,28.5c-5.6,10.2-12.7,16.6-21.4,19.1
		C1103.9,183.1,1094.4,181.6,1084.2,176z"/>
	<path class="st0" d="M1207.8,296.7c11.1,10.1,23.2,15.9,36.4,17.3c13.2,1.4,25.7-1.7,37.6-9.3l-24.9-22.9c-5.4,2.2-10.8,2.7-16,1.6
		c-5.3-1.1-10.1-3.6-14.4-7.6c-7-6.4-10.4-14-10.3-22.9s3.9-17.3,11.4-25.5c7.5-8.1,15.6-12.6,24.4-13.5s16.7,1.9,23.7,8.3
		c4.3,4,7.3,8.5,8.8,13.7s1.4,10.5-0.3,16.1L1309,275c6.6-12.5,8.6-25.3,6.1-38.4s-9.3-24.6-20.4-34.8c-9-8.3-18.9-13.7-29.8-16.2
		s-21.5-2-32.1,1.6s-20.1,9.9-28.5,19.1c-8.4,9.2-13.9,19.2-16.5,30c-2.6,10.8-2.2,21.5,1.3,32.1
		C1192.5,279,1198.7,288.4,1207.8,296.7z"/>
	<polygon class="st0" points="1301.5,402.1 1429.7,362.6 1410.2,336.5 1314.9,368.2 1372.7,286.1 1353.2,259.8 1278.5,371.2 	"/>
	<path class="st0" d="M1377.5,547.8c4.4,12.4,10.8,22.5,19.2,30.1c8.3,7.7,18,12.4,28.8,14.3s22.1,0.8,33.8-3.4
		c11.8-4.2,21.2-10.5,28.3-18.8c7.1-8.4,11.5-18.1,13.1-29.3c1.6-11.2,0.2-23-4.3-35.5l-15.9-44.6l-119,42.5L1377.5,547.8z
		 M1466.2,498.5l4.9,13.7c3.9,11,3.9,20.6,0,28.9c-3.9,8.3-11.4,14.4-22.3,18.3s-20.5,3.9-28.7-0.1c-8.2-4-14.2-11.4-18.1-22.4
		l-4.9-13.7L1466.2,498.5z"/>
	<path class="st0" d="M1463.4,601.4c-12.2,1.8-22.8,6.4-31.7,13.6c-8.9,7.2-15.4,16.2-19.4,26.8c-4,10.6-5.1,21.8-3.3,33.5
		s6.1,22.1,13,31c6.9,8.9,15.7,15.5,26.3,19.7c10.7,4.2,22.1,5.4,34.3,3.6c12.2-1.8,22.8-6.3,31.7-13.4c8.9-7.1,15.3-16,19.3-26.6
		c4-10.6,5.1-21.8,3.3-33.5c-1.8-11.8-6.1-22.1-13.1-31.1c-6.9-9-15.7-15.6-26.3-19.9C1487,600.8,1475.6,599.6,1463.4,601.4z
		 M1509.3,660.2c1.5,10-0.6,18.4-6.3,25.4c-5.7,7-14,11.3-25.1,13c-10.9,1.6-20.2,0-27.7-5c-7.6-5-12.1-12.5-13.6-22.4
		c-1.5-10.1,0.6-18.6,6.3-25.6c5.7-7,14-11.3,25.1-13c11.2-1.7,20.4,0,27.9,5C1503.4,642.6,1507.8,650.1,1509.3,660.2z"/>
	<polygon class="st0" points="1548.6,746.6 1420,768.1 1416.9,805.3 1498.1,832.9 1413.5,846.2 1410.5,883.3 1533.7,926.5 
		1536.4,893.5 1446.3,867.7 1539.7,853.7 1542.5,820 1452.7,790 1545.8,779.4 	"/>
	<polygon class="st0" points="1394.1,946.9 1468.2,970.9 1378.2,995.8 1368.7,1025.1 1488.9,1064.1 1498.4,1034.8 1423.9,1010.7 
		1514.3,985.8 1523.8,956.5 1403.5,917.6 	"/>
	<polygon class="st0" points="1329.6,1100 1350.8,1110.8 1369.1,1074.8 1460.5,1121.4 1474.5,1093.9 1361.9,1036.6 	"/>
	<path class="st0" d="M1382.4,1138.8c-10-7.3-20.7-11.5-32.1-12.7c-11.4-1.2-22.3,0.6-32.6,5.4c-10.3,4.7-19,11.9-26,21.5
		s-11.2,20-12.6,31.2c-1.4,11.2,0.3,22.1,4.8,32.5c4.6,10.5,11.9,19.4,21.8,26.7c10,7.3,20.6,11.6,31.9,12.8
		c11.3,1.2,22.1-0.5,32.4-5.3s19-11.9,26-21.5s11.2-20,12.6-31.3s-0.2-22.1-4.7-32.6C1399.7,1155.1,1392.4,1146.1,1382.4,1138.8z
		 M1373.7,1213c-6,8.1-13.4,12.7-22.4,13.6c-8.9,0.9-17.9-1.9-26.9-8.5c-8.9-6.5-14.3-14.2-16.1-23.1c-1.8-8.9,0.2-17.4,6.2-25.5
		c6-8.2,13.5-12.8,22.5-13.8c8.9-1,17.9,1.9,26.9,8.5c9.1,6.7,14.5,14.4,16.3,23.2C1381.8,1196.2,1379.7,1204.7,1373.7,1213z"/>
	<path class="st0" d="M1232.3,1225.9l9.6,21.5l-34.7,32l-20.7-11.3l-23.9,22.1l119.3,61.8l26.2-24.2l-52.1-123.8L1232.3,1225.9z
		 M1229.2,1291.6l22.9-21.1l20,44.5L1229.2,1291.6z"/>
	<path class="st0" d="M1119.5,1316.7c-11.2,7-19.6,15.4-25.3,25.2c-5.7,9.8-8.3,20.2-7.8,31.2c0.5,11,4,21.8,10.6,32.3
		c6.6,10.6,14.8,18.5,24.5,23.6s20.2,7.4,31.4,6.6c11.3-0.8,22.5-4.8,33.8-11.8l40.1-25.1l-67.1-107.1L1119.5,1316.7z
		 M1174.3,1400.4c-9.9,6.2-19.3,8.2-28.2,6.2s-16.5-8-22.7-17.9c-6.2-9.9-8.2-19.2-6.1-28c2.1-8.8,8.1-16.3,18-22.5l12.4-7.7
		l39,62.2L1174.3,1400.4z"/>
	<path class="st0" d="M1031.9,1398.8c-8.1-7.6-17.6-12.5-28.5-14.7c-10.9-2.2-22.1-1.4-33.8,2.4c-14.3,4.6-25.3,12.3-33,23.1
		c-7.7,10.8-11.2,23.2-10.4,37.3l32.2-10.4c0.8-5.8,2.9-10.7,6.5-14.8c3.5-4.1,8.1-7,13.7-8.8c9-2.9,17.3-2.2,25,2.3
		c7.6,4.5,13.2,11.9,16.6,22.4c3.4,10.5,3.3,19.8-0.2,27.9c-3.5,8.1-9.8,13.6-18.9,16.5c-5.6,1.8-11,2.1-16.3,0.9
		c-5.3-1.2-9.9-3.9-13.9-8.2l-32.2,10.4c7.7,11.9,17.8,20,30.4,24.2c12.6,4.2,26,4,40.3-0.6c11.6-3.8,21.2-9.8,28.7-17.9
		c7.5-8.2,12.3-17.8,14.4-28.7s1.3-22.4-2.6-34.3C1046.1,1416.1,1040.1,1406.4,1031.9,1398.8z"/>
	<polygon class="st0" points="831.8,1416 802.8,1546.9 835.1,1542.9 854.7,1444.4 897.5,1535.2 930,1531.2 870,1411.3 	"/>
	<path class="st0" d="M631.7,1412.3c-10.8,3.5-19.7,9.5-26.7,18.1c-7,8.5-11.6,18.9-13.7,31.1c-2.1,12.3-1.3,23.6,2.5,33.9
		c3.8,10.3,10.1,18.9,19,25.8c8.9,6.9,20,11.5,33.1,13.7l46.7,8l21.4-124.5l-46.7-8C654.4,1408.1,642.5,1408.8,631.7,1412.3z
		 M666.8,1511.8l-14.4-2.5c-11.5-2-19.8-6.7-25.1-14.2c-5.3-7.5-7-17-5-28.4c2-11.5,6.7-19.8,14.2-25c7.5-5.2,16.9-6.8,28.4-4.8
		l14.4,2.5L666.8,1511.8z"/>
	<path class="st0" d="M568.4,1394.5c-7.3-8.7-16.5-15.2-27.6-19.4c-11.1-4.2-22.2-5.5-33.4-3.9c-11.2,1.7-21.2,6.1-30.1,13.3
		s-15.6,16.6-20,28.1s-5.7,22.9-3.9,34.2c1.8,11.2,6.4,21.2,13.6,29.9c7.3,8.7,16.5,15.2,27.6,19.4s22.3,5.5,33.5,3.9
		c11.2-1.6,21.3-6,30.2-13.1c9-7.1,15.6-16.5,20-28c4.4-11.6,5.7-23,3.7-34.3C580.3,1413.2,575.7,1403.2,568.4,1394.5z M549,1447.6
		c-4,10.5-10,17.8-18,21.8c-8,4-16.8,4.2-26.3,0.6c-9.4-3.6-15.8-9.6-19.1-18s-2.9-17.8,1-28.2c3.9-10.3,9.9-17.5,18-21.7
		c8.1-4.1,16.8-4.4,26.2-0.8c9.5,3.6,15.9,9.6,19.2,18C553.4,1427.7,553,1437.1,549,1447.6z"/>
	<polygon class="st0" points="424,1318.1 359.9,1375 390.2,1295 359.4,1274 260.9,1359.7 288.3,1378.4 355.3,1312.8 321.3,1401 
		349.2,1420 419.7,1356.8 382.8,1443 410,1461.6 454.8,1339.1 	"/>
	<polygon class="st0" points="312.1,1228.2 254.7,1281 277.3,1190.3 256.5,1167.7 163.4,1253.2 184.2,1275.8 241.9,1222.8 
		219,1313.7 239.9,1336.4 332.9,1250.9 	"/>
	<polygon class="st0" points="210.4,1096.8 190.6,1109.9 212.9,1143.5 127.5,1200.3 144.5,1225.9 249.7,1156 	"/>
	<path class="st0" d="M177.4,1102c6.6-9.4,10.4-19.7,11.3-31c0.9-11.3-1-22.3-5.9-33.2s-11.9-19.6-21-26.3
		c-9.1-6.7-19.3-10.6-30.7-11.8c-11.4-1.2-22.7,0.8-34,5.9s-20.2,12.3-26.8,21.5c-6.6,9.3-10.4,19.5-11.3,30.8
		c-0.9,11.3,1,22.3,5.9,33.2c4.9,10.8,11.9,19.6,21,26.3s19.3,10.7,30.7,12s22.7-0.7,33.9-5.8C161.8,1118.7,170.8,1111.4,177.4,1102
		z M109.4,1097.8c-8.5-2.8-14.9-8.8-19.1-18.1c-4.2-9.2-4.5-17.9-0.9-26.2c3.6-8.3,10.4-14.7,20.6-19.3c10.1-4.6,19.4-5.5,28-2.7
		c8.6,2.8,15,8.7,19.2,17.9c4.2,9.3,4.5,18.1,1,26.3c-3.6,8.3-10.4,14.7-20.6,19.3C127.3,1099.7,117.9,1100.6,109.4,1097.8z"/>
	<path class="st0" d="M148.5,950.3L125,948l-10.7-45.9l20-12.4l-7.4-31.7L14.3,931.3l8.1,34.7l133.4,15.7L148.5,950.3z M51.5,941
		L93,915.3l7.1,30.3L51.5,941z"/>
	<path class="st0" d="M125.3,807.5c-0.6-13.2-3.7-24.7-9.4-34.5c-5.7-9.8-13.5-17.2-23.3-22.2s-20.9-7.3-33.3-6.8
		c-12.5,0.5-23.4,3.7-32.7,9.6c-9.3,5.9-16.4,13.9-21.2,24.1c-4.8,10.2-7,21.9-6.4,35.2l2,47.3l126.2-5.5L125.3,807.5z M26.1,828.3
		l-0.6-14.6c-0.5-11.6,2.3-20.8,8.5-27.6s15.1-10.4,26.7-10.9c11.6-0.5,20.8,2.3,27.4,8.5c6.6,6.2,10.2,15.1,10.7,26.7l0.6,14.6
		L26.1,828.3z"/>
	<path class="st0" d="M29.9,676.2c8.9,7.6,19.8,12.8,32.6,15.5c12.8,2.7,24.8,2.3,36-1.2c11.2-3.5,20.6-9.6,28.2-18.4
		c7.7-8.8,12.8-19.4,15.4-32c3.2-15.4,1.9-29.5-3.9-42.1c-5.8-12.7-15.4-22.3-28.7-28.9l-7.2,34.8c4.9,3.7,8.3,8.3,10.1,13.6
		c1.8,5.3,2.2,11,0.9,17.1c-2,9.8-7.1,16.9-15.1,21.6s-17.7,5.8-29.1,3.4c-11.3-2.3-19.8-7.3-25.3-14.7c-5.5-7.5-7.3-16-5.3-25.8
		c1.3-6,3.8-11.2,7.6-15.3s8.7-7,14.7-8.4l7.2-34.8c-14.8,0.8-27.5,5.8-37.9,15.1c-10.4,9.3-17.2,21.7-20.4,37.1
		c-2.6,12.6-2.1,24.4,1.4,35.5C14.8,659.2,21,668.5,29.9,676.2z"/>
	<polygon class="st0" points="187.5,499.8 84.1,404.3 70.6,435.7 149.6,505.6 44.6,496.3 31,527.9 171.5,537 	"/>
	<circle class="st0" cx="1409.6" cy="436.6" r="22.6"/>
	<circle class="st0" cx="770.9" cy="1481.7" r="22.6"/>
	<circle class="st0" cx="170.9" cy="414" r="22.6"/>
</g>
</svg>
